<mxfile host="app.diagrams.net" agent="Mozilla/5.0 (Windows NT 10.0; Win64; x64) AppleWebKit/537.36 (KHTML, like Gecko) Chrome/131.0.0.0 Safari/537.36" version="25.0.0">
  <diagram name="Page-1" id="pOug0FH4kCk_5dEHE6ce">
    <mxGraphModel dx="538" dy="346" grid="1" gridSize="10" guides="1" tooltips="1" connect="1" arrows="1" fold="1" page="1" pageScale="1" pageWidth="850" pageHeight="1100" math="0" shadow="0">
      <root>
        <mxCell id="0" />
        <mxCell id="1" parent="0" />
        <mxCell id="6WfNP7wlW2NeR5UoH6lF-10" value="" style="edgeStyle=none;curved=1;rounded=0;orthogonalLoop=1;jettySize=auto;html=1;fontSize=12;startSize=8;endSize=8;entryX=0.5;entryY=0;entryDx=0;entryDy=0;" edge="1" parent="1" source="6WfNP7wlW2NeR5UoH6lF-1" target="6WfNP7wlW2NeR5UoH6lF-3">
          <mxGeometry relative="1" as="geometry" />
        </mxCell>
        <mxCell id="6WfNP7wlW2NeR5UoH6lF-1" value="Start" style="ellipse;whiteSpace=wrap;html=1;" vertex="1" parent="1">
          <mxGeometry x="300" y="10" width="120" height="80" as="geometry" />
        </mxCell>
        <mxCell id="6WfNP7wlW2NeR5UoH6lF-2" value="End" style="ellipse;whiteSpace=wrap;html=1;" vertex="1" parent="1">
          <mxGeometry x="300" y="960" width="120" height="80" as="geometry" />
        </mxCell>
        <mxCell id="6WfNP7wlW2NeR5UoH6lF-11" value="" style="edgeStyle=none;curved=1;rounded=0;orthogonalLoop=1;jettySize=auto;html=1;fontSize=12;startSize=8;endSize=8;" edge="1" parent="1" source="6WfNP7wlW2NeR5UoH6lF-3" target="6WfNP7wlW2NeR5UoH6lF-4">
          <mxGeometry relative="1" as="geometry" />
        </mxCell>
        <mxCell id="6WfNP7wlW2NeR5UoH6lF-3" value="&lt;div&gt;double x, y;&lt;/div&gt;&lt;div&gt;double start = -4.0;&lt;/div&gt;&lt;div&gt;double end = 4.0;&lt;/div&gt;&lt;div&gt;double step = 0.5;&lt;/div&gt;" style="rounded=0;whiteSpace=wrap;html=1;" vertex="1" parent="1">
          <mxGeometry x="295" y="130" width="130" height="70" as="geometry" />
        </mxCell>
        <mxCell id="6WfNP7wlW2NeR5UoH6lF-12" value="" style="edgeStyle=none;curved=1;rounded=0;orthogonalLoop=1;jettySize=auto;html=1;fontSize=12;startSize=8;endSize=8;" edge="1" parent="1" source="6WfNP7wlW2NeR5UoH6lF-4" target="6WfNP7wlW2NeR5UoH6lF-5">
          <mxGeometry relative="1" as="geometry" />
        </mxCell>
        <mxCell id="6WfNP7wlW2NeR5UoH6lF-4" value="output&lt;br&gt;&lt;div&gt;Таблиця значень функції y = 2x^2 - 5x - 8&lt;/div&gt;&lt;div&gt;&amp;nbsp; &amp;nbsp;( на проміжку [-4; 4] з кроком 0.5 )&amp;nbsp;&amp;nbsp;&lt;/div&gt;&lt;div&gt;-----------------------------------------&lt;/div&gt;&lt;div&gt;&amp;nbsp; &amp;nbsp; &amp;nbsp; &amp;nbsp; &amp;nbsp;x&amp;nbsp; &amp;nbsp; &amp;nbsp; &amp;nbsp; &amp;nbsp; &amp;nbsp; &amp;nbsp;y&lt;/div&gt;&lt;div&gt;-----------------------------------------&lt;/div&gt;" style="shape=parallelogram;perimeter=parallelogramPerimeter;whiteSpace=wrap;html=1;fixedSize=1;" vertex="1" parent="1">
          <mxGeometry x="220" y="240" width="280" height="100" as="geometry" />
        </mxCell>
        <mxCell id="6WfNP7wlW2NeR5UoH6lF-13" value="" style="edgeStyle=none;curved=1;rounded=0;orthogonalLoop=1;jettySize=auto;html=1;fontSize=12;startSize=8;endSize=8;" edge="1" parent="1" source="6WfNP7wlW2NeR5UoH6lF-5" target="6WfNP7wlW2NeR5UoH6lF-6">
          <mxGeometry relative="1" as="geometry" />
        </mxCell>
        <mxCell id="6WfNP7wlW2NeR5UoH6lF-5" value="x = start;" style="rounded=0;whiteSpace=wrap;html=1;" vertex="1" parent="1">
          <mxGeometry x="300" y="380" width="120" height="60" as="geometry" />
        </mxCell>
        <mxCell id="6WfNP7wlW2NeR5UoH6lF-14" value="" style="edgeStyle=none;curved=1;rounded=0;orthogonalLoop=1;jettySize=auto;html=1;fontSize=12;startSize=8;endSize=8;" edge="1" parent="1" source="6WfNP7wlW2NeR5UoH6lF-6" target="6WfNP7wlW2NeR5UoH6lF-8">
          <mxGeometry relative="1" as="geometry" />
        </mxCell>
        <mxCell id="6WfNP7wlW2NeR5UoH6lF-18" value="Yes" style="edgeLabel;html=1;align=center;verticalAlign=middle;resizable=0;points=[];fontSize=12;" vertex="1" connectable="0" parent="6WfNP7wlW2NeR5UoH6lF-14">
          <mxGeometry x="-0.1947" y="2" relative="1" as="geometry">
            <mxPoint as="offset" />
          </mxGeometry>
        </mxCell>
        <mxCell id="6WfNP7wlW2NeR5UoH6lF-19" style="edgeStyle=none;curved=0;rounded=0;orthogonalLoop=1;jettySize=auto;html=1;exitX=0;exitY=0.5;exitDx=0;exitDy=0;fontSize=12;startSize=8;endSize=8;" edge="1" parent="1" source="6WfNP7wlW2NeR5UoH6lF-6">
          <mxGeometry relative="1" as="geometry">
            <mxPoint x="360" y="930" as="targetPoint" />
            <Array as="points">
              <mxPoint x="220" y="530" />
              <mxPoint x="220" y="930" />
            </Array>
          </mxGeometry>
        </mxCell>
        <mxCell id="6WfNP7wlW2NeR5UoH6lF-6" value="x &amp;lt;= end;" style="rhombus;whiteSpace=wrap;html=1;" vertex="1" parent="1">
          <mxGeometry x="320" y="490" width="80" height="80" as="geometry" />
        </mxCell>
        <mxCell id="6WfNP7wlW2NeR5UoH6lF-17" value="" style="edgeStyle=none;curved=1;rounded=0;orthogonalLoop=1;jettySize=auto;html=1;fontSize=12;startSize=8;endSize=8;" edge="1" parent="1" source="6WfNP7wlW2NeR5UoH6lF-7" target="6WfNP7wlW2NeR5UoH6lF-2">
          <mxGeometry relative="1" as="geometry" />
        </mxCell>
        <mxCell id="6WfNP7wlW2NeR5UoH6lF-7" value="x += step;" style="rounded=0;whiteSpace=wrap;html=1;" vertex="1" parent="1">
          <mxGeometry x="300" y="820" width="120" height="60" as="geometry" />
        </mxCell>
        <mxCell id="6WfNP7wlW2NeR5UoH6lF-15" value="" style="edgeStyle=none;curved=1;rounded=0;orthogonalLoop=1;jettySize=auto;html=1;fontSize=12;startSize=8;endSize=8;" edge="1" parent="1" source="6WfNP7wlW2NeR5UoH6lF-8" target="6WfNP7wlW2NeR5UoH6lF-9">
          <mxGeometry relative="1" as="geometry" />
        </mxCell>
        <mxCell id="6WfNP7wlW2NeR5UoH6lF-8" value="y = 2 * x * x - 5 * x - 8;" style="rounded=0;whiteSpace=wrap;html=1;" vertex="1" parent="1">
          <mxGeometry x="285" y="620" width="150" height="60" as="geometry" />
        </mxCell>
        <mxCell id="6WfNP7wlW2NeR5UoH6lF-16" value="" style="edgeStyle=none;curved=1;rounded=0;orthogonalLoop=1;jettySize=auto;html=1;fontSize=12;startSize=8;endSize=8;" edge="1" parent="1" source="6WfNP7wlW2NeR5UoH6lF-9" target="6WfNP7wlW2NeR5UoH6lF-7">
          <mxGeometry relative="1" as="geometry" />
        </mxCell>
        <mxCell id="6WfNP7wlW2NeR5UoH6lF-9" value="output&lt;br&gt;x and y&lt;br&gt;(centered, precision 1)" style="shape=parallelogram;perimeter=parallelogramPerimeter;whiteSpace=wrap;html=1;fixedSize=1;" vertex="1" parent="1">
          <mxGeometry x="277.5" y="730" width="165" height="60" as="geometry" />
        </mxCell>
        <mxCell id="6WfNP7wlW2NeR5UoH6lF-20" value="" style="endArrow=classic;html=1;rounded=0;fontSize=12;startSize=8;endSize=8;curved=0;" edge="1" parent="1">
          <mxGeometry width="50" height="50" relative="1" as="geometry">
            <mxPoint x="360" y="910" as="sourcePoint" />
            <mxPoint x="360" y="460" as="targetPoint" />
            <Array as="points">
              <mxPoint x="500" y="910" />
              <mxPoint x="500" y="460" />
            </Array>
          </mxGeometry>
        </mxCell>
      </root>
    </mxGraphModel>
  </diagram>
</mxfile>
